<?xml version="1.0" standalone="no"?>
<!DOCTYPE svg PUBLIC "-//W3C//DTD SVG 20010904//EN"
 "http://www.w3.org/TR/2001/REC-SVG-20010904/DTD/svg10.dtd">
<svg version="1.0" xmlns="http://www.w3.org/2000/svg"
 width="16.000000pt" height="16.000000pt" viewBox="0 0 16.000000 16.000000"
 preserveAspectRatio="xMidYMid meet">
<metadata>
Created by potrace 1.11, written by Peter Selinger 2001-2013
</metadata>
<g transform="translate(0.000000,16.000000) scale(0.003125,-0.003125)"
fill="#000000" stroke="none">
<path d="M2355 5004 c-110 -64 -218 -126 -240 -138 -22 -13 -229 -133 -460
-266 -231 -134 -451 -261 -490 -283 -38 -22 -135 -78 -215 -125 -80 -46 -167
-97 -195 -112 -27 -15 -131 -75 -230 -133 l-180 -104 0 -1283 0 -1283 125 -72
c69 -40 296 -171 505 -292 398 -230 756 -437 815 -471 41 -23 83 -47 375 -217
214 -123 250 -144 345 -199 l46 -25 209 120 c116 66 239 138 275 159 36 21
311 180 612 354 301 174 562 325 580 336 18 11 53 31 78 44 25 13 137 78 250
144 l205 120 3 1280 2 1280 -32 20 c-18 11 -49 29 -68 40 -19 11 -118 68 -220
127 -102 59 -203 118 -225 130 -22 13 -80 46 -130 75 -49 29 -106 62 -125 73
-19 10 -136 78 -260 150 -417 241 -485 280 -615 355 -71 41 -155 90 -185 107
-231 133 -318 183 -335 193 -18 9 -50 -6 -220 -104z m380 -914 c151 -20 217
-37 353 -86 104 -37 230 -102 327 -167 421 -283 677 -763 677 -1267 1 -380
-121 -714 -364 -1006 -228 -272 -562 -462 -923 -523 -85 -15 -148 -18 -280
-16 -93 2 -183 6 -200 10 -16 3 -61 13 -100 21 -383 79 -753 338 -968 677
-192 301 -279 701 -227 1032 7 38 13 79 15 90 22 143 127 407 217 541 185 279
435 482 735 598 88 35 218 72 284 82 19 3 57 8 84 13 67 10 296 11 370 1z"/>
<path d="M1816 3824 c-67 -21 -145 -100 -176 -179 -35 -89 -33 -271 4 -450 35
-166 45 -329 23 -371 -22 -42 -104 -117 -171 -154 l-56 -32 0 -78 0 -78 56
-32 c67 -37 149 -112 171 -154 22 -42 12 -202 -22 -371 -51 -258 -42 -397 33
-510 78 -115 134 -135 384 -135 l178 0 0 159 0 158 -78 5 c-89 5 -155 32 -186
75 -29 39 -31 114 -7 239 37 196 52 340 41 390 -16 69 -53 135 -113 198 l-54
58 52 49 c29 27 67 77 85 110 41 77 42 128 6 332 -47 270 -47 333 5 391 37 43
95 66 181 73 l68 6 0 158 0 159 -187 -1 c-137 0 -201 -4 -237 -15z"/>
<path d="M2880 3681 l0 -158 69 -6 c146 -12 221 -76 221 -189 0 -24 -9 -89
-20 -145 -27 -147 -41 -254 -42 -332 0 -59 4 -77 32 -130 18 -33 56 -83 85
-110 l52 -49 -54 -58 c-60 -63 -97 -129 -113 -198 -11 -50 4 -194 41 -390 24
-125 22 -200 -7 -239 -31 -43 -97 -70 -186 -75 l-78 -5 0 -158 0 -159 178 0
c250 0 306 20 384 135 75 113 84 252 33 510 -34 169 -44 329 -22 371 22 42
104 117 171 154 l56 32 0 78 0 78 -56 32 c-67 37 -149 112 -171 154 -22 42
-12 205 23 371 21 102 27 158 28 260 0 163 -19 222 -99 301 -74 75 -112 84
-342 84 l-183 0 0 -159z"/>
</g>
</svg>
